<svg width="320" height="212" viewBox="0 0 320 212" fill="none" xmlns="http://www.w3.org/2000/svg">
<rect width="320" height="212" />
<path opacity="0.52" fill-rule="evenodd" clip-rule="evenodd" d="M172.692 98.6353C172.694 98.6405 172.695 98.6458 172.697 98.651L172.698 98.6534C173.675 102.037 174.524 105.279 175.331 108.359C176.864 114.206 178.243 119.469 180.049 124.006C182.778 130.866 186.395 135.81 192.773 138.285C199.757 140.963 205.74 139.393 210.376 135.904C215.05 132.387 218.355 126.911 219.811 121.863L219.814 121.854L219.817 121.844C222.748 112.465 221.186 103.248 220.203 99.3168L220.202 99.3141C218.341 91.7714 214.987 86.9652 211.132 84.1105C207.274 81.2529 202.839 80.2944 198.718 80.5819L198.716 80.582C193.091 80.9634 187.817 84.0242 183.072 88.0271C179.148 91.3376 175.659 95.2279 172.692 98.6353ZM172.063 96.6455C167.444 83.13 157.502 74.9153 146.09 72.0996C134.148 69.1527 120.651 72.131 110.035 81.0099L110.032 81.0123L110.03 81.0147C103.163 86.8551 98.9652 94.7392 97.4023 102.322C95.8451 109.878 96.8804 117.285 100.706 122.067L100.708 122.069L100.711 122.072C107.118 129.95 118.102 132.128 130.658 128.621C143.223 125.111 157.521 115.889 170.909 100.69L170.913 100.685C171.04 100.539 171.168 100.392 171.297 100.243C172.115 103.128 172.853 105.945 173.566 108.66C175.119 114.585 176.547 120.03 178.392 124.665C181.215 131.761 185.102 137.221 192.13 139.948L192.133 139.949C199.757 142.873 206.38 141.142 211.449 137.328C216.477 133.544 219.975 127.72 221.522 122.366C224.59 112.541 222.951 102.955 221.933 98.8845C219.992 91.0224 216.443 85.8254 212.194 82.678C207.948 79.5332 203.078 78.4909 198.594 78.8035C192.413 79.2228 186.782 82.5644 181.922 86.6646C178.212 89.7944 174.889 93.4212 172.063 96.6455ZM170.7 98.2101C170.555 98.3767 170.412 98.5416 170.271 98.7048C170.033 98.9797 169.799 99.2496 169.569 99.5137C156.344 114.526 142.327 123.511 130.178 126.904C118.022 130.299 107.896 128.077 102.096 120.95C98.7198 116.728 97.6548 109.931 99.1489 102.682C100.637 95.4598 104.643 87.9387 111.182 82.3748C121.378 73.8484 134.294 71.0251 145.663 73.8304C156.756 76.5676 166.429 84.6745 170.7 98.2101Z" fill="url(#paint0_linear_1304_95628)"/>
<path fill-rule="evenodd" clip-rule="evenodd" d="M117.376 84.3069C131.095 80.0301 149.386 83.8191 168.625 104.019L168.63 104.024L168.634 104.029C171.422 107.001 173.969 109.612 176.311 111.904C177.402 110.738 178.499 109.526 179.6 108.267L179.604 108.263C183.965 103.307 189.218 98.3048 194.888 95.0219C200.56 91.7377 206.87 90.0562 213.149 92.1807L213.155 92.1829L213.162 92.1851C218.529 94.0468 224.97 101.143 224.97 111.632C224.97 115.874 223.56 121.079 219.842 125.092C216.066 129.166 210.1 131.806 201.435 131.173C194.291 130.664 187.351 127.206 176.412 116.94C155.075 138.565 135.325 143.804 120.426 140.519C104.346 136.973 94.244 123.453 95.0786 111.17C95.113 100.519 103.878 88.5147 117.376 84.3069ZM173.841 114.474C171.437 112.122 168.847 109.464 166.033 106.464C147.437 86.9419 130.496 83.9442 118.44 87.7023C106.19 91.5214 98.6465 102.336 98.6465 111.233V111.296L98.6421 111.359C97.9138 121.617 106.523 133.81 121.196 137.045C134.499 139.979 153.076 135.516 173.841 114.474ZM178.883 114.369C189.571 124.392 195.734 127.201 201.692 127.625L201.695 127.625C209.446 128.191 214.29 125.84 217.221 122.677C220.209 119.453 221.402 115.176 221.402 111.632C221.402 102.563 215.837 96.8837 211.996 95.5472C207.066 93.882 201.866 95.0955 196.68 98.0983C191.49 101.103 186.534 105.783 182.287 110.608C181.148 111.909 180.013 113.162 178.883 114.369Z" fill="url(#paint1_linear_1304_95628)"/>
<path d="M222.036 120.461C226.434 120.461 230 116.708 230 112.078C230 107.448 226.434 103.695 222.036 103.695C217.637 103.695 214.072 107.448 214.072 112.078C214.072 116.708 217.637 120.461 222.036 120.461Z" fill="#E0537F"/>
<path d="M98.3832 120.461C103.013 120.461 106.766 116.708 106.766 112.078C106.766 107.448 103.013 103.695 98.3832 103.695C93.7533 103.695 90 107.448 90 112.078C90 116.708 93.7533 120.461 98.3832 120.461Z" fill="#00C176"/>
<defs>
<linearGradient id="paint0_linear_1304_95628" x1="96.837" y1="106.181" x2="222.855" y2="106.181" gradientUnits="userSpaceOnUse">
<stop stop-color="#00C176"/>
<stop offset="0.4819" stop-color="#7195FD"/>
<stop offset="1" stop-color="#E0537F"/>
</linearGradient>
<linearGradient id="paint1_linear_1304_95628" x1="95.0455" y1="112.108" x2="224.873" y2="112.108" gradientUnits="userSpaceOnUse">
<stop stop-color="#00C176"/>
<stop offset="0.4819" stop-color="#7195FD"/>
<stop offset="1" stop-color="#E0537F"/>
</linearGradient>
</defs>
</svg>
